<svg xmlns="http://www.w3.org/2000/svg" xmlns:xlink="http://www.w3.org/1999/xlink" version="1.1" width="256" height="256" viewBox="0 0 256 256" xml:space="preserve">
<desc>Created with Fabric.js 3.5.0</desc>
<defs>
</defs>
<rect x="0" y="0" width="100%" height="100%" fill="#ff6666"/>
<g transform="matrix(1.086 0.5654 -0.5654 1.086 128.1551 128.4922)" id="572021">
<path style="stroke: rgb(255,255,255); stroke-width: 5; stroke-dasharray: none; stroke-linecap: butt; stroke-dashoffset: 0; stroke-linejoin: miter; stroke-miterlimit: 4; is-custom-font: none; font-file-url: none; fill: rgb(229,0,139); fill-rule: nonzero; opacity: 1;" vector-effect="non-scaling-stroke" transform=" translate(-79, -78.9999)" d="M 154.685 2.50049 H 154.711 L 154.738 2.49994 C 155.15 2.49126 155.491 2.81853 155.5 3.2304 L 155.5 3.23069 C 155.5 3.24095 155.5 3.25176 155.5 3.26283 L 155.499 3.28886 V 3.3149 V 154.686 C 155.499 155.135 155.135 155.5 154.685 155.5 H 3.31409 C 2.86449 155.5 2.5 155.135 2.5 154.686 V 3.3149 C 2.5 2.86483 2.86465 2.50049 3.31409 2.50049 H 154.685 Z" stroke-linecap="round"/>
</g>
<g transform="matrix(0.2849 0.1198 -0.1198 0.2849 111.4644 70.9331)" id="546825">
<path style="stroke: none; stroke-width: 1; stroke-dasharray: none; stroke-linecap: butt; stroke-dashoffset: 0; stroke-linejoin: miter; stroke-miterlimit: 4; is-custom-font: none; font-file-url: none; fill: rgb(255,255,255); fill-rule: nonzero; opacity: 1;" vector-effect="non-scaling-stroke" transform=" translate(-110.042, -105.6535)" d="M 187.2 109.049 C 153.504 114.041 136.552 120.593 136.344 128.705 C 136.136 136.817 133.848 154.289 129.48 181.121 C 125.112 207.953 114.712 216.897 98.28 207.953 C 81.848 199.009 64.688 192.145 46.8 187.361 C 28.912 182.577 25.376 169.369 36.192 147.737 C 47.008 126.105 41.6 108.009 19.968 93.449 C -1.664 78.889 -5.72 64.641 7.8 50.705 C 21.32 36.769 37.232 30.529 55.536 31.985 C 73.84 33.441 89.544 26.889 102.648 12.329 C 115.752 -2.23097 128.856 -3.89497 141.96 7.33703 C 155.064 18.569 165.256 30.529 172.536 43.217 C 179.816 55.905 192.504 68.801 210.6 81.905 C 228.696 95.009 220.896 104.057 187.2 109.049 Z" stroke-linecap="round"/>
</g>
<g transform="matrix(0.2697 -0.1653 0.1653 0.2697 177.3732 128.0244)" id="651593">
<path style="stroke: none; stroke-width: 1; stroke-dasharray: none; stroke-linecap: butt; stroke-dashoffset: 0; stroke-linejoin: miter; stroke-miterlimit: 4; is-custom-font: none; font-file-url: none; fill: rgb(255,255,255); fill-rule: nonzero; opacity: 0.75;" vector-effect="non-scaling-stroke" transform=" translate(-118.0002, -91.9999)" d="M 235.952 123.403 C 234.124 155.989 210.247 180.907 164.022 167.975 C 117.797 155.044 97.7365 162.022 80.2752 172.349 C 62.8139 182.675 40.0871 190.828 18.8628 175.561 C -2.36151 160.295 -4.64908 132.528 6.88351 115.763 C 20.3111 96.2176 45.894 92.789 64.5194 91.4526 C 82.9417 90.1163 100.2 83.9745 104.721 44.8695 C 109.228 5.75106 145.735 -6.34353 166.377 2.99738 C 192.447 14.7815 184.055 39.4162 190.268 53.7785 C 196.494 68.1408 205.807 76.1184 215.269 82.8676 C 228.52 92.3165 236.71 109.77 235.952 123.403 Z" stroke-linecap="round"/>
</g>
<g transform="matrix(0.4448 0 0 0.4448 92.2996 159.4436)" id="310547">
<path style="stroke: none; stroke-width: 1; stroke-dasharray: none; stroke-linecap: butt; stroke-dashoffset: 0; stroke-linejoin: miter; stroke-miterlimit: 4; is-custom-font: none; font-file-url: none; fill: rgb(255,255,255); fill-rule: nonzero; opacity: 1;" vector-effect="non-scaling-stroke" transform=" translate(-91.5, -91.5)" d="M 179.178 95.4579 C 170.064 104.931 167.873 118.175 172.605 135.191 C 177.338 152.206 174.095 165.451 162.878 174.923 C 151.661 184.396 138.428 185.536 123.18 178.344 C 107.932 171.152 95.9258 163.96 87.1625 156.767 C 78.3991 149.575 69.548 145.19 60.6094 143.611 C 51.6707 142.032 37.5617 141.857 18.2822 143.084 C -0.997214 144.312 -5.02837 136.506 6.18876 119.666 C 17.4059 102.826 24.7671 90.3707 28.2725 82.3014 C 31.7779 74.232 30.4633 64.0576 24.329 51.7782 C 18.1946 39.4988 23.365 35.201 39.8402 38.8848 C 56.3153 42.5687 66.218 40.1128 69.548 31.5172 C 72.8781 22.9216 78.9249 14.0629 87.6883 4.94101 C 96.4516 -4.18085 102.849 -0.672444 106.88 15.4662 C 110.911 31.6049 114.154 42.3932 116.607 47.8313 C 119.061 53.2693 120.639 58.2688 121.34 62.8297 C 122.041 67.3906 134.134 71.6007 157.62 75.46 C 181.106 79.3192 188.292 85.9852 179.178 95.4579 Z" stroke-linecap="round"/>
</g>
</svg>
